# xmcd CD database file
#
# Track frame offsets:
#	150
#	18003
#	25691
#	39666
#	53992
#	64525
#	79135
#	94566
#	108641
#	118575
#	138183
#	146469
#	157600
#	170547
#	179981
#
# Disc length: 2678 seconds
#
# Revision: 0
# Processed by: cddbd v1.5.2PL0 Copyright (c) Steve Scherf et al.
# Submitted via: CDex 1.51
#
DISCID=bc0a740f
DTITLE=Marty Robbins - Gunfighter Ballads and Trail Songs
DYEAR=1900
DGENRE=Country
TTITLE0=Big Iron
TTITLE1=A One Hundred Sixty Acres
TTITLE2=They're Hanging Me Tonight
TTITLE3=Cool Water
TTITLE4=Billy The Kid
TTITLE5=Utah Carol
TTITLE6=The Strawberry Roan
TTITLE7=The Master's Call
TTITLE8=Running Gun
TTITLE9=El Paso
TTITLE10=In The Valley
TTITLE11=The Little Green Valley
TTITLE12=The Hanging Tree
TTITLE13=Saddle Tramp
TTITLE14=El Paso (Full Length Version)
EXTD=
EXTT0=
EXTT1=
EXTT2=
EXTT3=
EXTT4=
EXTT5=
EXTT6=
EXTT7=
EXTT8=
EXTT9=
EXTT10=
EXTT11=
EXTT12=
EXTT13=
EXTT14=
PLAYORDER=
